%TF.GenerationSoftware,KiCad,Pcbnew,(5.1.6)-1*%
%TF.CreationDate,2022-11-08T09:30:12-05:00*%
%TF.ProjectId,not-a-varta,6e6f742d-612d-4766-9172-74612e6b6963,rev?*%
%TF.SameCoordinates,Original*%
%TF.FileFunction,Copper,L2,Bot*%
%TF.FilePolarity,Positive*%
%FSLAX46Y46*%
G04 Gerber Fmt 4.6, Leading zero omitted, Abs format (unit mm)*
G04 Created by KiCad (PCBNEW (5.1.6)-1) date 2022-11-08 09:30:12*
%MOMM*%
%LPD*%
G01*
G04 APERTURE LIST*
%TA.AperFunction,SMDPad,CuDef*%
%ADD10R,1.250000X0.600000*%
%TD*%
%TA.AperFunction,ComponentPad*%
%ADD11O,2.100000X1.500000*%
%TD*%
%TA.AperFunction,ComponentPad*%
%ADD12C,1.450000*%
%TD*%
%TA.AperFunction,Conductor*%
%ADD13C,0.500000*%
%TD*%
G04 APERTURE END LIST*
D10*
%TO.P,IC1,1*%
%TO.N,+BATT*%
X150388000Y-101280000D03*
%TO.P,IC1,2*%
%TO.N,-BATT*%
X150388000Y-100330000D03*
%TO.P,IC1,3*%
%TO.N,+BATT*%
X150388000Y-99380000D03*
%TO.P,IC1,4*%
%TO.N,Net-(IC1-Pad4)*%
X152888000Y-99380000D03*
%TO.P,IC1,5*%
%TO.N,VDD*%
X152888000Y-101280000D03*
%TD*%
D11*
%TO.P,J2,1*%
%TO.N,VDD*%
X161036000Y-101600000D03*
%TD*%
%TO.P,J3,1*%
%TO.N,-BATT*%
X142240000Y-101600000D03*
%TD*%
D12*
%TO.P,J1,1*%
%TO.N,-BATT*%
X151638000Y-103378000D03*
%TO.P,J1,2*%
%TO.N,+BATT*%
X156638000Y-100178000D03*
%TO.P,J1,3*%
X146638000Y-100178000D03*
%TD*%
D13*
%TO.N,+BATT*%
X147436000Y-99380000D02*
X150388000Y-99380000D01*
X146638000Y-100178000D02*
X147436000Y-99380000D01*
X150388000Y-101280000D02*
X151196000Y-101280000D01*
X151196000Y-101280000D02*
X151638000Y-100838000D01*
X151196000Y-99380000D02*
X150388000Y-99380000D01*
X151638000Y-99822000D02*
X151196000Y-99380000D01*
X156486000Y-100330000D02*
X156638000Y-100178000D01*
X151638000Y-100330000D02*
X151638000Y-99822000D01*
X151638000Y-100330000D02*
X156486000Y-100330000D01*
X151638000Y-100838000D02*
X151638000Y-100330000D01*
%TO.N,-BATT*%
X143967200Y-103378000D02*
X151638000Y-103378000D01*
X149606000Y-100330000D02*
X148336000Y-101600000D01*
X150388000Y-100330000D02*
X149606000Y-100330000D01*
X148336000Y-101600000D02*
X142240000Y-101600000D01*
X143967200Y-103327200D02*
X142240000Y-101600000D01*
X143967200Y-103378000D02*
X143967200Y-103327200D01*
%TO.N,VDD*%
X152888000Y-101280000D02*
X155702000Y-101280000D01*
X155702000Y-101280000D02*
X156022000Y-101600000D01*
X156022000Y-101600000D02*
X161036000Y-101600000D01*
%TD*%
M02*
